<svg width="25" height="25" viewBox="0 0 25 25" fill="none" xmlns="http://www.w3.org/2000/svg">
<path d="M17.3125 15.25H16.2263L15.8413 14.8788C17.2353 13.2618 18.0015 11.1975 18 9.0625C18 7.29483 17.4758 5.56686 16.4938 4.0971C15.5117 2.62733 14.1159 1.48179 12.4827 0.805331C10.8496 0.128872 9.05259 -0.0481198 7.31888 0.296736C5.58518 0.641591 3.99267 1.49281 2.74274 2.74274C1.49281 3.99267 0.641591 5.58518 0.296736 7.31888C-0.0481198 9.05259 0.128872 10.8496 0.805331 12.4827C1.48179 14.1159 2.62733 15.5117 4.0971 16.4938C5.56686 17.4758 7.29483 18 9.0625 18C11.2763 18 13.3113 17.1888 14.8788 15.8413L15.25 16.2263V17.3125L22.125 24.1738L24.1738 22.125L17.3125 15.25ZM9.0625 15.25C5.63875 15.25 2.875 12.4863 2.875 9.0625C2.875 5.63875 5.63875 2.875 9.0625 2.875C12.4863 2.875 15.25 5.63875 15.25 9.0625C15.25 12.4863 12.4863 15.25 9.0625 15.25Z" fill="black"/>
</svg>
